# xmcd CD Database Entry
#
# Track frame offsets:
# 183
# 45553
# 84705
# 131643
# 173418
# 174645
#
# Disc length: 2798 seconds
#
# Revision: 1
# Processed by: cddbd v1.4PL0 Copyright (c) Steve Scherf et al.
# Submitted via: tcd 2.0b
#
DISCID=450aec06
DTITLE=Onbekend - Onbekend
DYEAR=1900
DGENRE=
TTITLE0=Nummer 1
TTITLE1=Nummer 2
TTITLE2=Nummer 3
TTITLE3=Nummer 4
TTITLE4=Nummer 5
TTITLE5=Nummer 6
EXTD=
EXTT0=
EXTT1=
EXTT2=
EXTT3=
EXTT4=
EXTT5=
PLAYORDER=
